<svg width="17" height="18" viewBox="0 0 17 18" fill="none" xmlns="http://www.w3.org/2000/svg">
<path d="M11.025 17.25C11.2439 17.25 11.4537 17.1631 11.6084 17.0084C11.7631 16.8536 11.85 16.6438 11.85 16.425C11.85 16.2062 11.7631 15.9964 11.6084 15.8416C11.4537 15.6869 11.2439 15.6 11.025 15.6H4.15005C3.56657 15.6 3.00699 15.3682 2.59441 14.9556C2.18183 14.5431 1.95005 13.9835 1.95005 13.4V4.6C1.95005 4.01652 2.18183 3.45694 2.59441 3.04436C3.00699 2.63179 3.56657 2.4 4.15005 2.4H11.025C11.2439 2.4 11.4537 2.31308 11.6084 2.15836C11.7631 2.00365 11.85 1.7938 11.85 1.575C11.85 1.3562 11.7631 1.14635 11.6084 0.991637C11.4537 0.836919 11.2439 0.75 11.025 0.75H4.15005C3.12897 0.75 2.1497 1.15562 1.42769 1.87764C0.705673 2.59965 0.300049 3.57892 0.300049 4.6V13.4C0.300049 14.4211 0.705673 15.4003 1.42769 16.1224C2.1497 16.8444 3.12897 17.25 4.15005 17.25H11.025ZM12.1151 4.8189C12.1947 4.74536 12.288 4.68821 12.3897 4.65073C12.4914 4.61325 12.5994 4.59617 12.7077 4.60046C12.816 4.60475 12.9224 4.63033 13.0208 4.67574C13.1191 4.72114 13.2076 4.78549 13.2811 4.8651L16.5811 8.4401C16.722 8.59253 16.8002 8.79245 16.8002 9C16.8002 9.20755 16.722 9.40747 16.5811 9.5599L13.2811 13.1349C13.1325 13.2955 12.9262 13.3905 12.7075 13.3989C12.4888 13.4074 12.2758 13.3286 12.1151 13.18C11.9545 13.0314 11.8596 12.825 11.8511 12.6063C11.8427 12.3877 11.9214 12.1746 12.07 12.014L14.0918 9.8239H5.52505C5.30624 9.8239 5.0964 9.73698 4.94169 9.58226C4.78697 9.42755 4.70005 9.2177 4.70005 8.9989C4.70005 8.7801 4.78697 8.57025 4.94169 8.41554C5.0964 8.26082 5.30624 8.1739 5.52505 8.1739H14.0907L12.0689 5.9838C11.9954 5.90421 11.9383 5.81092 11.9008 5.70924C11.8633 5.60757 11.8462 5.49951 11.8505 5.39123C11.8548 5.28295 11.8804 5.17658 11.9258 5.07819C11.9712 4.9798 12.0355 4.89132 12.1151 4.8178V4.8189Z" fill="#CCCCCC"/>
</svg>
