<svg width="19" height="19" viewBox="0 0 19 19" fill="none" xmlns="http://www.w3.org/2000/svg">
<path d="M15.4375 16.625H11.875C11.5601 16.625 11.258 16.4999 11.0353 16.2772C10.8126 16.0545 10.6875 15.7524 10.6875 15.4375V11.875H8.3125V15.4375C8.3125 15.7524 8.18739 16.0545 7.96469 16.2772C7.74199 16.4999 7.43994 16.625 7.125 16.625H3.5625C3.24756 16.625 2.94551 16.4999 2.72281 16.2772C2.50011 16.0545 2.375 15.7524 2.375 15.4375V8.57227C2.37505 8.4075 2.40939 8.24455 2.47584 8.09377C2.54228 7.943 2.63937 7.8077 2.76094 7.69648L8.69844 2.30078C8.91735 2.10051 9.2033 1.98944 9.5 1.98944C9.7967 1.98944 10.0827 2.10051 10.3016 2.30078L16.2391 7.69648C16.3606 7.8077 16.4577 7.943 16.5242 8.09377C16.5906 8.24455 16.6249 8.4075 16.625 8.57227V15.4375C16.625 15.7524 16.4999 16.0545 16.2772 16.2772C16.0545 16.4999 15.7524 16.625 15.4375 16.625ZM8.3125 10.6875H10.6875C11.0024 10.6875 11.3045 10.8126 11.5272 11.0353C11.7499 11.258 11.875 11.5601 11.875 11.875V15.4375H15.4375V8.57227L9.5 3.17656L3.5625 8.57227V15.4375H7.125V11.875C7.125 11.5601 7.25011 11.258 7.47281 11.0353C7.69551 10.8126 7.99756 10.6875 8.3125 10.6875Z" fill="#CCCCCC"/>
</svg>
