<svg width="21" height="14" viewBox="0 0 21 14" fill="none" xmlns="http://www.w3.org/2000/svg">
<path d="M9.94221 9.95275C10.8227 9.36785 11.4915 8.51503 11.8496 7.52049C12.2077 6.52596 12.2361 5.44255 11.9306 4.43061C11.6251 3.41867 11.002 2.53196 10.1534 1.90171C9.30478 1.27146 8.27582 0.931152 7.21877 0.931152C6.16173 0.931152 5.13276 1.27146 4.28416 1.90171C3.43555 2.53196 2.8124 3.41867 2.50692 4.43061C2.20143 5.44255 2.22985 6.52596 2.58796 7.52049C2.94608 8.51503 3.61486 9.36785 4.49533 9.95275C2.99332 10.5051 1.69649 11.5042 0.779319 12.8156C0.719539 12.8849 0.674904 12.9659 0.648278 13.0534C0.621651 13.141 0.613623 13.2331 0.624707 13.3239C0.635791 13.4147 0.665743 13.5022 0.712641 13.5808C0.759538 13.6594 0.822345 13.7272 0.897028 13.7801C0.971711 13.8329 1.05662 13.8696 1.14631 13.8877C1.23599 13.9058 1.32847 13.9049 1.4178 13.8852C1.50714 13.8654 1.59136 13.8272 1.66505 13.773C1.73875 13.7188 1.80029 13.6497 1.84572 13.5703C2.45216 12.7088 3.25687 12.0057 4.19198 11.5204C5.1271 11.0351 6.16521 10.7818 7.21877 10.7818C8.27233 10.7818 9.31044 11.0351 10.2456 11.5204C11.1807 12.0057 11.9854 12.7088 12.5918 13.5703C12.6373 13.6497 12.6988 13.7188 12.7725 13.773C12.8462 13.8272 12.9304 13.8654 13.0197 13.8852C13.1091 13.9049 13.2016 13.9058 13.2912 13.8877C13.3809 13.8696 13.4658 13.8329 13.5405 13.7801C13.6152 13.7272 13.678 13.6594 13.7249 13.5808C13.7718 13.5022 13.8018 13.4147 13.8128 13.3239C13.8239 13.2331 13.8159 13.141 13.7893 13.0534C13.7626 12.9659 13.718 12.8849 13.6582 12.8156C12.7411 11.5042 11.4442 10.5051 9.94221 9.95275ZM3.6094 5.85939C3.6094 5.14552 3.82108 4.44769 4.21769 3.85413C4.61429 3.26057 5.178 2.79795 5.83752 2.52477C6.49705 2.25158 7.22278 2.1801 7.92293 2.31937C8.62308 2.45864 9.26621 2.8024 9.77099 3.30718C10.2758 3.81196 10.6195 4.45509 10.7588 5.15524C10.8981 5.85539 10.8266 6.58111 10.5534 7.24064C10.2802 7.90017 9.81759 8.46387 9.22403 8.86048C8.63048 9.25708 7.93264 9.46877 7.21877 9.46877C6.26151 9.46877 5.34345 9.08849 4.66656 8.41161C3.98967 7.73472 3.6094 6.81666 3.6094 5.85939ZM20.1879 13.7262C20.1181 13.7764 20.0391 13.8123 19.9553 13.8316C19.8715 13.851 19.7847 13.8535 19.7 13.839C19.6153 13.8245 19.5342 13.7933 19.4617 13.7471C19.3891 13.701 19.3265 13.6409 19.2774 13.5703C18.6705 12.7092 17.8657 12.0064 16.9307 11.5211C15.9957 11.0357 14.9578 10.782 13.9043 10.7813C13.7303 10.7813 13.5634 10.7121 13.4403 10.5891C13.3172 10.466 13.2481 10.2991 13.2481 10.125C13.2481 9.95097 13.3172 9.78405 13.4403 9.66098C13.5634 9.53791 13.7303 9.46877 13.9043 9.46877C14.8616 9.46877 15.7796 9.08849 16.4565 8.41161C17.1334 7.73472 17.5137 6.81666 17.5137 5.85939C17.5137 4.90213 17.1334 3.98407 16.4565 3.30718C15.7796 2.63029 14.8616 2.25002 13.9043 2.25002C13.5747 2.25221 13.2467 2.29631 12.9281 2.38127C12.8452 2.40506 12.7584 2.41226 12.6726 2.40245C12.5869 2.39264 12.504 2.36602 12.4285 2.32412C12.3531 2.28221 12.2867 2.22584 12.233 2.15823C12.1794 2.09061 12.1397 2.01309 12.116 1.9301C12.0702 1.76262 12.0918 1.58387 12.1761 1.43209C12.2604 1.28031 12.4008 1.16757 12.5672 1.11799C13.0033 1.00057 13.4527 0.939913 13.9043 0.937518C14.9625 0.933709 15.9936 1.27158 16.8442 1.90088C17.6949 2.53017 18.3197 3.41726 18.6257 4.4302C18.9317 5.44313 18.9026 6.52778 18.5426 7.52281C18.1826 8.51784 17.511 9.37007 16.6278 9.95275C18.1307 10.5073 19.4296 11.5058 20.352 12.8156C20.4504 12.9583 20.4884 13.1341 20.4577 13.3047C20.427 13.4753 20.33 13.6269 20.1879 13.7262Z" fill="#CCCCCC"/>
</svg>
