<svg width="150" height="150" viewBox="0 0 150 150" fill="none" xmlns="http://www.w3.org/2000/svg">
<path d="M97.4989 150C99.488 150 101.396 149.21 102.802 147.803C104.209 146.397 104.999 144.489 104.999 142.5C104.999 140.511 104.209 138.603 102.802 137.197C101.396 135.79 99.488 135 97.4989 135H34.9996C29.6953 135 24.6083 132.893 20.8576 129.142C17.1069 125.391 14.9998 120.304 14.9998 115V35C14.9998 29.6957 17.1069 24.6086 20.8576 20.8579C24.6083 17.1071 29.6953 15 34.9996 15H97.4989C99.488 15 101.396 14.2098 102.802 12.8033C104.209 11.3968 104.999 9.48912 104.999 7.5C104.999 5.51088 104.209 3.60322 102.802 2.1967C101.396 0.790175 99.488 0 97.4989 0H34.9996C25.7171 0 16.8149 3.68749 10.2512 10.2513C3.68745 16.815 0 25.7174 0 35V115C0 124.283 3.68745 133.185 10.2512 139.749C16.8149 146.313 25.7171 150 34.9996 150H97.4989ZM107.409 36.99C108.132 36.3214 108.98 35.8019 109.905 35.4612C110.829 35.1205 111.811 34.9652 112.796 35.0042C113.78 35.0432 114.747 35.2757 115.642 35.6885C116.536 36.1013 117.34 36.6863 118.009 37.41L148.008 69.91C149.289 71.2957 150 73.1132 150 75C150 76.8868 149.289 78.7043 148.008 80.09L118.009 112.59C116.657 114.05 114.782 114.913 112.794 114.99C110.806 115.067 108.869 114.351 107.409 113C105.949 111.649 105.085 109.773 105.009 107.785C104.932 105.797 105.648 103.86 106.999 102.4L125.379 82.49H47.4995C45.5104 82.49 43.6027 81.6998 42.1962 80.2933C40.7897 78.8868 39.9996 76.9791 39.9996 74.99C39.9996 73.0009 40.7897 71.0932 42.1962 69.6867C43.6027 68.2802 45.5104 67.49 47.4995 67.49H125.369L106.989 47.58C106.32 46.8565 105.801 46.0084 105.46 45.084C105.119 44.1597 104.964 43.1773 105.003 42.193C105.042 41.2086 105.275 40.2416 105.687 39.3472C106.1 38.4527 106.685 37.6483 107.409 36.98V36.99Z" fill="#CCCCCC"/>
</svg>
