<svg width="400" height="400" viewBox="0 0 400 400" fill="none" xmlns="http://www.w3.org/2000/svg">
<circle cx="200" cy="200" r="200" fill="#FBC42C"/>
<g clip-path="url(#clip0_78_2)">
<g filter="url(#filter0_d_78_2)">
<path d="M200 200C221.042 200 238.095 182.094 238.095 160C238.095 137.906 221.042 120 200 120C178.958 120 161.905 137.906 161.905 160C161.905 182.094 178.958 200 200 200ZM226.667 210H221.697C215.089 213.187 207.738 215 200 215C192.262 215 184.941 213.187 178.304 210H173.333C151.25 210 133.333 228.812 133.333 252V265C133.333 273.281 139.732 280 147.619 280H252.381C260.268 280 266.667 273.281 266.667 265V252C266.667 228.812 248.75 210 226.667 210Z" fill="#494848"/>
</g>
</g>
<defs>
<filter id="filter0_d_78_2" x="129.333" y="120" width="141.333" height="168" filterUnits="userSpaceOnUse" color-interpolation-filters="sRGB">
<feFlood flood-opacity="0" result="BackgroundImageFix"/>
<feColorMatrix in="SourceAlpha" type="matrix" values="0 0 0 0 0 0 0 0 0 0 0 0 0 0 0 0 0 0 127 0" result="hardAlpha"/>
<feOffset dy="4"/>
<feGaussianBlur stdDeviation="2"/>
<feComposite in2="hardAlpha" operator="out"/>
<feColorMatrix type="matrix" values="0 0 0 0 0 0 0 0 0 0 0 0 0 0 0 0 0 0 0.25 0"/>
<feBlend mode="normal" in2="BackgroundImageFix" result="effect1_dropShadow_78_2"/>
<feBlend mode="normal" in="SourceGraphic" in2="effect1_dropShadow_78_2" result="shape"/>
</filter>
<clipPath id="clip0_78_2">
<rect width="133.333" height="160" fill="white" transform="translate(133.333 120)"/>
</clipPath>
</defs>
</svg>
